<svg width="112" height="44" viewBox="0 0 112 44" fill="none" xmlns="http://www.w3.org/2000/svg">
<path d="M0 22C0 9.84974 9.55126 0 21.3333 0C33.1154 0 42.6667 9.84974 42.6667 22C42.6667 34.1503 33.1154 44 21.3333 44C9.55126 44 0 34.1503 0 22Z" fill="#F79009"/>
<path d="M12.76 31.0475H8.45337V13.86H12.76V31.0475Z" fill="white"/>
<path d="M17.6726 13.86H22.8859L30.9126 26.2075L30.7126 13.86H34.9259V31.0475H30.1392L21.7126 18.0537L21.8992 31.0475H17.6726V13.86Z" fill="white"/>
<path d="M50.2534 21.835C50.2534 16.005 53.5156 13.09 60.0401 13.09C63.2045 13.09 65.5823 13.75 67.1734 15.07C68.9334 16.5275 69.8134 18.842 69.8134 22.0137C69.8134 25.1945 68.9379 27.5137 67.1868 28.9712C65.5868 30.3004 63.2045 30.965 60.0401 30.965C56.8134 30.965 54.409 30.2866 52.8268 28.93C51.1112 27.4541 50.2534 25.0891 50.2534 21.835ZM60.0401 16.0325C56.5201 16.0325 54.7601 17.9758 54.7601 21.8625C54.7601 23.8791 55.1423 25.3825 55.9068 26.3725C56.7601 27.4541 58.1379 27.995 60.0401 27.995C63.569 27.995 65.3334 26.0012 65.3334 22.0137C65.3334 18.0262 63.569 16.0325 60.0401 16.0325Z" fill="#F79009"/>
<path d="M73.4593 13.42H78.6726L86.6993 25.7675L86.4993 13.42H90.7126V30.6075H85.926L77.4993 17.6137L77.686 30.6075H73.4593V13.42Z" fill="#F79009"/>
<path d="M103.612 16.4175C100.678 16.4175 99.1318 17.7466 98.9718 20.405L110.385 20.4187V23.4025H98.9452C98.954 24.9791 99.3629 26.0929 100.172 26.7437C100.892 27.3212 102.038 27.61 103.612 27.61H110.385V30.6075H103.412C100.772 30.6075 98.7363 30.1033 97.3051 29.095C95.2963 27.6833 94.2918 25.4237 94.2918 22.3162C94.2918 19.1995 95.0874 16.9216 96.6785 15.4825C98.1807 14.1075 100.465 13.42 103.532 13.42H110.385V16.4175H103.612Z" fill="#F79009"/>
</svg>
