<svg width="56" height="56" viewBox="0 0 56 56" fill="none" xmlns="http://www.w3.org/2000/svg">
<rect x="4" y="4" width="48" height="48" rx="24" fill="#FEF0C7"/>
<path d="M17 20V26M17 26H23M17 26L21.64 21.64C22.7147 20.5647 24.0444 19.7792 25.5048 19.3567C26.9652 18.9343 28.5089 18.8887 29.9917 19.2242C31.4745 19.5597 32.8482 20.2654 33.9845 21.2754C35.1209 22.2854 35.9828 23.5667 36.49 25M39 36V30M39 30H33M39 30L34.36 34.36C33.2853 35.4352 31.9556 36.2207 30.4952 36.6432C29.0348 37.0656 27.4911 37.1112 26.0083 36.7757C24.5255 36.4402 23.1518 35.7345 22.0155 34.7245C20.8791 33.7145 20.0172 32.4332 19.51 31" stroke="#DC6803" stroke-width="2" stroke-linecap="round" stroke-linejoin="round"/>
<rect x="4" y="4" width="48" height="48" rx="24" stroke="#FFFAEB" stroke-width="8"/>
</svg>
